<svg xmlns="http://www.w3.org/2000/svg" width="33" height="18" fill="none"><rect width="33" height="18" fill="#FF5C00" rx="9"/><path fill="#fff" d="M15.09 4.623v6.706h-1.312V4.623zM7.42 7.565c0-1.368 1.118-2.353 2.554-2.348 1.43-.005 2.548.98 2.553 2.348-.005 1.39-1.123 2.37-2.553 2.37-1.436 0-2.554-.98-2.554-2.37m1.282 0c-.01.78.538 1.23 1.272 1.23.707 0 1.256-.45 1.26-1.23-.004-.758-.553-1.215-1.26-1.21-.734-.005-1.282.452-1.272 1.21m.133 6.214v-3.127h1.323v2.081h5.178v1.046zm15.36-9.167v9.331h-1.322v-9.33zm-7.813 6.686c2.41-1.138 3.471-2.615 3.682-4.686h-3.18V5.586h4.512c-.005 2.83-.994 5.184-4.327 6.758z"/></svg>
