<svg xmlns="http://www.w3.org/2000/svg" width="51" height="18" fill="none"><rect width="51" height="18" fill="#FF5C00" rx="9"/><path fill="#fff" d="M11.02 9.657v1.405c.769-.046 1.538-.118 2.266-.226l.102.954c-2.071.395-4.286.415-5.916.42l-.154-1.056c.702 0 1.528-.005 2.4-.03V9.657zM7.502 8.96c1.41-.374 2.097-1.246 2.185-2.194H7.8V5.709h1.917V4.694h1.303V5.71h1.927v1.057H11.04c.087.902.785 1.748 2.194 2.091l-.594 1.016c-1.092-.277-1.846-.882-2.272-1.656-.405.815-1.148 1.445-2.25 1.727zm6.317 5.004V4.612h1.302v9.352zm9.895-9.352v3.466h1.374v1.067h-1.374v4.819H22.4V4.612zm-6.993 7.086V5.474h4.378V6.53h-3.076v4.091c1.354-.01 2.471-.082 3.712-.297l.143 1.097c-1.45.246-2.722.282-4.368.277zm13.935-6.306v1.045h-.759v2.59q.562-.046 1.087-.108l.092.964c-1.866.318-3.999.348-5.557.348l-.144-1.045c.318 0 .661-.006 1.015-.01V6.437h-.769V5.392zm-3.876 8.387v-2.943h1.302v1.897h5.086v1.046zm.871-4.634c.323-.01.657-.021.985-.036V6.438h-.985zm3.866 2.348v-6.87h1.313v2.625h1.26v1.086h-1.26v3.159zm11.074-6.88v9.33h-1.25V9.237h-.842v4.276h-1.24V4.746h1.24V8.17h.841V4.612zm-7.823 6.982V5.576h3.712v6.02zm1.22-1.025h1.271V6.612h-1.271z"/></svg>
