<svg width="39" height="18" viewBox="0 0 39 18" fill="none" xmlns="http://www.w3.org/2000/svg">
<rect width="39" height="18" fill="#2D4F06"/>
<path d="M7.59738 13V5.92818H10.4116C11.9689 5.92818 12.7562 6.68094 12.7562 7.74447C12.7562 8.58011 12.2106 9.09807 11.4786 9.26036V9.32942C12.2797 9.3674 13.0325 9.99931 13.0325 11.0525C13.0325 12.1713 12.1899 13 10.5946 13H7.59738ZM9.06492 11.7949H10.3046C11.1471 11.7949 11.5166 11.4427 11.5166 10.9075C11.5166 10.3135 11.0642 9.89572 10.3356 9.89572H9.06492V11.7949ZM9.06492 8.89088H10.1941C10.8122 8.89088 11.2714 8.54903 11.2714 7.98273C11.2714 7.46823 10.8916 7.11947 10.2217 7.11947H9.06492V8.89088ZM13.9646 13V5.92818H18.709V7.14365H15.4321V8.85635H18.4639V10.0684H15.4321V11.7845H18.7229V13H13.9646ZM23.6861 7.95166C23.6309 7.38881 23.1854 7.06077 22.4672 7.06077C21.7248 7.06077 21.3104 7.40262 21.3104 7.86878C21.3001 8.38674 21.8284 8.61464 22.4396 8.75622L23.0784 8.9116C24.2869 9.18439 25.1882 9.80249 25.1951 10.9834C25.1882 12.2749 24.1799 13.1001 22.4568 13.1001C20.751 13.1001 19.6599 12.3094 19.6184 10.797H21.0445C21.0929 11.5083 21.6592 11.864 22.4396 11.864C23.2096 11.864 23.7068 11.5083 23.7103 10.9765C23.7068 10.4965 23.2717 10.2721 22.5017 10.0822L21.7282 9.89227C20.5369 9.60221 19.8014 9.00829 19.8049 7.96547C19.798 6.68439 20.934 5.83149 22.4775 5.83149C24.0452 5.83149 25.0777 6.6982 25.0984 7.95166H23.6861ZM25.8724 7.14365V5.92818H31.6631V7.14365H29.4981V13H28.0443V7.14365H25.8724Z" fill="white"/>
</svg>
