<svg width="49" height="18" viewBox="0 0 49 18" fill="none" xmlns="http://www.w3.org/2000/svg">
<rect width="49" height="18" fill="black"/>
<path d="M14.7037 5.02003V11.5083H13.4537V5.02003H14.7037ZM7.23135 9.31215C8.72652 8.81146 9.37224 7.57528 9.37569 6.36326V5.50691H10.6671V6.36326C10.6602 7.5442 11.2921 8.69406 12.7528 9.16022L12.1174 10.1409C11.1126 9.80594 10.422 9.14296 10.0283 8.29351C9.63122 9.20856 8.91989 9.94061 7.88052 10.2963L7.23135 9.31215ZM8.74724 13.7459V10.8764H10.0076V12.741H14.9385V13.7459H8.74724ZM19.144 6.40815C19.144 7.4855 19.7724 8.52141 21.1778 8.95304L20.5183 9.92334C19.5721 9.61257 18.9161 9.00483 18.5328 8.2279C18.1495 9.12224 17.4589 9.82666 16.4437 10.172L15.7738 9.19475C17.2551 8.69751 17.8905 7.51312 17.8974 6.28729V5.48273H19.144V6.40815ZM16.9996 12.1747C16.9962 11.1008 18.1702 10.462 20.0417 10.4655C21.8857 10.462 23.0424 11.1008 23.0424 12.1747C23.0424 13.2693 21.8857 13.9012 20.0417 13.8978C18.1702 13.9012 16.9962 13.2693 16.9996 12.1747ZM18.2462 12.1747C18.2427 12.6823 18.8781 12.9206 20.0417 12.924C21.1985 12.9206 21.8132 12.6823 21.8132 12.1747C21.8132 11.6948 21.1985 11.4358 20.0417 11.4358C18.8781 11.4358 18.2427 11.6948 18.2462 12.1747ZM21.7096 10.2825V5.00622H22.9596V7.0884H24.1543V8.12086H22.9596V10.2825H21.7096ZM31.9889 5.00622V9.78867H30.7389V5.00622H31.9889ZM24.6857 7.48895C24.6823 6.2424 25.7285 5.37569 27.1166 5.37914C28.5013 5.37569 29.5441 6.2424 29.5441 7.48895C29.5441 8.70442 28.5013 9.57113 27.1166 9.57113C25.7285 9.57113 24.6823 8.70442 24.6857 7.48895ZM25.9046 7.48895C25.8977 8.15193 26.4053 8.54558 27.1166 8.54903C27.8107 8.54558 28.3149 8.15193 28.3149 7.48895C28.3149 6.82251 27.8107 6.41506 27.1166 6.41851C26.4053 6.41506 25.8977 6.82251 25.9046 7.48895ZM26.0462 13.8011V10.1789H27.272V11.0041H30.7458V10.1789H31.9889V13.8011H26.0462ZM27.272 12.7928H30.7458V11.971H27.272V12.7928ZM40.5141 5.7797V6.62224C40.5106 7.73412 40.5106 8.98412 40.1584 10.8764L38.9015 10.7452C39.2399 9.06354 39.2572 7.81354 39.2641 6.77072H34.0293V5.7797H40.5141ZM33.1936 12.8101V11.7983H36.0942V8.7424H37.3304V11.7983H41.3014V12.8101H33.1936Z" fill="white"/>
</svg>
