<svg width="37" height="18" viewBox="0 0 37 18" fill="none" xmlns="http://www.w3.org/2000/svg">
<rect width="37" height="18" fill="black"/>
<path d="M13.4952 5.92818V13H12.2244L9.11671 8.5076H9.06492V13H7.59738V5.92818H8.88881L11.9724 10.4171H12.0345V5.92818H13.4952ZM14.6872 13V5.92818H19.4317V7.14365H16.1548V8.85635H19.1865V10.0684H16.1548V11.7845H19.4455V13H14.6872ZM22.1574 13L20.1374 5.92818H21.7396L22.924 10.8764H22.9861L24.2845 5.92818H25.6657L26.964 10.8833H27.0227L28.2071 5.92818H29.8093L27.7893 13H26.3563L25.0027 8.33494H24.9474L23.5938 13H22.1574Z" fill="white"/>
</svg>
