<svg width="24" height="25" viewBox="0 0 24 25" fill="none" xmlns="http://www.w3.org/2000/svg">
<path d="M23.7609 7.86777C23.7609 7.86777 23.5266 6.21309 22.8047 5.48652C21.8906 4.53027 20.8688 4.52559 20.4 4.46934C17.0438 4.22559 12.0047 4.22559 12.0047 4.22559H11.9953C11.9953 4.22559 6.95625 4.22559 3.6 4.46934C3.13125 4.52559 2.10938 4.53027 1.19531 5.48652C0.473438 6.21309 0.24375 7.86777 0.24375 7.86777C0.24375 7.86777 0 9.81309 0 11.7537V13.5725C0 15.5131 0.239062 17.4584 0.239062 17.4584C0.239062 17.4584 0.473437 19.1131 1.19062 19.8396C2.10469 20.7959 3.30469 20.7631 3.83906 20.8662C5.76094 21.049 12 21.1053 12 21.1053C12 21.1053 17.0438 21.0959 20.4 20.8568C20.8688 20.8006 21.8906 20.7959 22.8047 19.8396C23.5266 19.1131 23.7609 17.4584 23.7609 17.4584C23.7609 17.4584 24 15.5178 24 13.5725V11.7537C24 9.81309 23.7609 7.86777 23.7609 7.86777ZM9.52031 15.7803V9.03496L16.0031 12.4193L9.52031 15.7803Z" fill="white"/>
</svg>
