<svg width="32" height="18" viewBox="0 0 32 18" fill="none" xmlns="http://www.w3.org/2000/svg">
<rect width="32" height="18" fill="black"/>
<path d="M14.7314 5.00622V13.9012H13.471V5.00622H14.7314ZM7.29351 11.384C9.58633 10.2963 10.5981 8.89434 10.7983 6.9192H7.77003V5.94199H12.0691C12.0656 8.63536 11.1195 10.8764 7.94268 12.375L7.29351 11.384ZM21.4782 5.6692V6.57389H16.2123V5.6692H18.2151V4.95097H19.4582V5.6692H21.4782ZM15.9464 9.90608C16.6336 9.90608 17.4071 9.90262 18.2151 9.88191V9.40539C17.231 9.27072 16.6129 8.80801 16.6198 8.12431C16.6129 7.30249 17.5003 6.77417 18.847 6.77762C20.1592 6.77417 21.0638 7.30249 21.0673 8.12431C21.0638 8.80801 20.4319 9.27417 19.4582 9.40539V9.83356C20.173 9.79558 20.8843 9.73688 21.5576 9.65401L21.6474 10.4931C19.7551 10.8177 17.6764 10.8488 16.1087 10.8488L15.9464 9.90608ZM17.193 12.337V11.3805H23.3739V13.9012H22.1101V12.337H17.193ZM17.818 8.12431C17.818 8.44889 18.2116 8.61809 18.847 8.61464C19.4547 8.61809 19.8726 8.44889 19.876 8.12431C19.8726 7.77901 19.4547 7.60635 18.847 7.60635C18.2116 7.60635 17.818 7.77901 17.818 8.12431ZM22.1101 11.0318V5.02693H23.3739V11.0318H22.1101Z" fill="white"/>
</svg>
