<svg width="48" height="18" viewBox="0 0 48 18" fill="none" xmlns="http://www.w3.org/2000/svg">
<rect width="48" height="18" rx="4" fill="black"/>
<path d="M13.2622 5.18652V6.02734C13.2622 6.98608 13.2622 8.05762 12.9495 9.56494H14.2568V10.4878H10.6064V13.8921H9.45801V10.4878H5.80762V9.56494H11.8267C11.9548 9.01636 12.0317 8.51904 12.083 8.06274L6.6792 8.33447L6.53564 7.36035L12.1548 7.19629C12.1702 6.80664 12.1753 6.44263 12.1753 6.09912H6.82275V5.18652H13.2622ZM22.5522 5.01221V5.93506H21.2808V7.70898H22.501V8.60107H19.6709V9.55469H23.3315V10.457H14.8823V9.55469H18.5225V8.60107H15.6924V7.70898H16.9126V5.93506H15.6411V5.01221H22.5522ZM15.9282 13.728V11.1235H17.0664V12.8052H22.3779V13.728H15.9282ZM18.0508 7.70898H20.1323V5.93506H18.0508V7.70898ZM27.3613 6.23242C27.3613 7.36548 28.1099 8.49854 29.5454 8.98047L28.9712 9.8623C27.9355 9.52393 27.2024 8.82153 26.7974 7.94995C26.3923 8.91895 25.6233 9.69824 24.521 10.0674L23.9365 9.16504C25.4131 8.67798 26.2026 7.44751 26.2026 6.24268V6.11963H24.2749V5.20703H29.2788V6.11963H27.3613V6.23242ZM25.4028 11.5234V10.6108H31.7192V13.9126H30.5811V11.5234H25.4028ZM29.002 7.87305V6.93994H30.5811V4.64307H31.7192V10.1699H30.5811V7.87305H29.002ZM41.481 9.10352V10.0161H33.0317V9.10352H35.0005V7.92944C34.2981 7.63208 33.9033 7.16553 33.9033 6.56055C33.9033 5.448 35.2004 4.79688 37.2461 4.79688C39.2866 4.79688 40.5837 5.448 40.5889 6.56055C40.5837 7.17065 40.1838 7.63721 39.4814 7.92944V9.10352H41.481ZM34.0161 12.231C34.0161 11.1646 35.2209 10.5698 37.2461 10.5801C39.2405 10.5698 40.4504 11.1646 40.4556 12.231C40.4504 13.3076 39.2405 13.8921 37.2461 13.8921C35.2209 13.8921 34.0161 13.3076 34.0161 12.231ZM35.0928 6.56055C35.0825 7.12451 35.8772 7.427 37.2461 7.42188C38.6099 7.427 39.4097 7.12451 39.4097 6.56055C39.4097 5.99146 38.6099 5.67358 37.2461 5.67871C35.8772 5.67358 35.0825 5.99146 35.0928 6.56055ZM35.1748 12.231C35.1697 12.7539 35.8977 13.0359 37.2461 13.0308C38.574 13.0359 39.3071 12.7539 39.3174 12.231C39.3071 11.7131 38.574 11.4465 37.2461 11.4414C35.8977 11.4465 35.1697 11.7131 35.1748 12.231ZM36.1489 9.10352H38.3433V8.22168C38.01 8.26782 37.6409 8.29346 37.2461 8.29346C36.8513 8.29346 36.4822 8.26782 36.1489 8.22168V9.10352Z" fill="white"/>
</svg>
