<svg width="48" height="18" viewBox="0 0 48 18" fill="none" xmlns="http://www.w3.org/2000/svg">
<rect width="48" height="18" rx="4" fill="#D2D2D2"/>
<path d="M13.2622 5.18652V6.02734C13.2622 6.98608 13.2622 8.05762 12.9495 9.56494H14.2568V10.4878H10.6064V13.8921H9.45801V10.4878H5.80762V9.56494H11.8267C11.9548 9.01636 12.0317 8.51904 12.083 8.06274L6.6792 8.33447L6.53564 7.36035L12.1548 7.19629C12.1702 6.80664 12.1753 6.44263 12.1753 6.09912H6.82275V5.18652H13.2622ZM22.5522 5.01221V5.93506H21.2808V7.70898H22.501V8.60107H19.6709V9.55469H23.3315V10.457H14.8823V9.55469H18.5225V8.60107H15.6924V7.70898H16.9126V5.93506H15.6411V5.01221H22.5522ZM15.9282 13.728V11.1235H17.0664V12.8052H22.3779V13.728H15.9282ZM18.0508 7.70898H20.1323V5.93506H18.0508V7.70898ZM29.5249 5.61719V6.50928H27.6074C27.6279 7.31421 28.3611 8.02686 29.73 8.29346L29.2788 9.17529C28.2175 8.95483 27.469 8.45752 27.0588 7.79102C26.6538 8.51904 25.8848 9.06763 24.7979 9.29834L24.3159 8.4165C25.7053 8.13965 26.4436 7.36035 26.459 6.50928H24.5518V5.61719H26.4692V4.66357H27.6074V5.61719H29.5249ZM23.9673 9.78027C25.6951 9.7854 27.9971 9.77002 29.9761 9.52393L30.0581 10.3442C29.2583 10.4827 28.4277 10.5698 27.6177 10.6262V13.6255H26.4692V10.6877C25.6233 10.7185 24.8184 10.7236 24.1108 10.7236L23.9673 9.78027ZM30.5811 13.9023V4.65332H31.709V13.9023H30.5811ZM41.5015 11.8413V12.7642H33.0317V11.8413H36.6616V9.69824H37.7896V11.8413H41.5015ZM33.2778 8.98047C35.2158 8.66772 36.6052 7.27832 36.6104 5.88379V5.20703H37.8203V5.88379C37.8203 7.28345 39.22 8.66772 41.1733 8.98047L40.6812 9.92383C39.1174 9.62646 37.8306 8.72925 37.2153 7.51416C36.6052 8.72412 35.3337 9.63159 33.77 9.92383L33.2778 8.98047Z" fill="white"/>
</svg>
