<svg width="20" height="20" viewBox="0 0 20 20" fill="none" xmlns="http://www.w3.org/2000/svg">
<path fill-rule="evenodd" clip-rule="evenodd" d="M2 4.4C2 3.76348 2.25286 3.15303 2.70294 2.70294C3.15303 2.25286 3.76348 2 4.4 2H15.6C16.2365 2 16.847 2.25286 17.2971 2.70294C17.7471 3.15303 18 3.76348 18 4.4V15.6C18 16.2365 17.7471 16.847 17.2971 17.2971C16.847 17.7471 16.2365 18 15.6 18H4.4C3.76348 18 3.15303 17.7471 2.70294 17.2971C2.25286 16.847 2 16.2365 2 15.6V4.4Z" fill="white"/>
<path d="M13 5C13 6.65685 11.6569 8 10 8C8.34315 8 7 6.65685 7 5" stroke="black" stroke-width="2"/>
</svg>
