<svg width="32" height="32" viewBox="0 0 32 32" fill="none" xmlns="http://www.w3.org/2000/svg">
<path fill-rule="evenodd" clip-rule="evenodd" d="M7.86937 14.6422C7.86937 10.9025 10.9 7.87133 14.6379 7.87133C18.3758 7.87133 21.4064 10.9025 21.4064 14.6422C21.4064 18.3819 18.3758 21.413 14.6379 21.413C10.9 21.413 7.86937 18.3819 7.86937 14.6422ZM14.6379 5.99805C9.8649 5.99805 5.99609 9.86841 5.99609 14.6422C5.99609 19.4159 9.8649 23.2863 14.6379 23.2863C16.6882 23.2863 18.5716 22.5721 20.0532 21.379L24.4015 25.7286C24.7672 26.0944 25.3601 26.0944 25.7259 25.7286C26.0916 25.3627 26.0916 24.7696 25.7259 24.4037L21.3771 20.0537C22.5675 18.5724 23.2797 16.6905 23.2797 14.6422C23.2797 9.86841 19.4109 5.99805 14.6379 5.99805Z" fill="black"/>
</svg>
