<svg xmlns="http://www.w3.org/2000/svg" width="39" height="18" fill="none"><rect width="39" height="18" fill="#0080FF" rx="9"/><path fill="#fff" d="M11.434 7.951c-.059-.561-.503-.888-1.221-.888-.742 0-1.157.341-1.162.81-.005.513.522.742 1.133.879l.634.156c1.211.279 2.115.894 2.12 2.07-.005 1.295-1.011 2.124-2.735 2.12-1.709.004-2.798-.787-2.842-2.305h1.426c.049.713.615 1.074 1.397 1.074.771 0 1.27-.361 1.27-.889 0-.483-.44-.707-1.212-.898l-.771-.185c-1.192-.293-1.924-.89-1.924-1.924-.005-1.284 1.128-2.139 2.676-2.139 1.567 0 2.597.87 2.617 2.12zM14.91 13h-1.582l2.451-7.07h1.885L20.105 13h-1.572l-.532-1.63h-2.559zm.903-2.773h1.817l-.884-2.706h-.049zM20.907 13V5.93h1.465v5.86h3.047V13zm5.46 0V5.93h4.745v1.21h-3.28v1.72h3.036v1.21H27.83v1.72h3.291V13z"/></svg>
