<svg xmlns="http://www.w3.org/2000/svg" width="49" height="18" fill="none"><rect width="49" height="18" fill="#0080FF" rx="9"/><path fill="#fff" d="M7.625 13V5.576h4.984v1.272H9.164v1.804h3.188v1.272H9.164v1.805h3.455V13zm7.486-7.424 1.805 5.66h.071l1.815-5.66h1.702L17.941 13h-1.98l-2.573-7.424zM21.345 13V5.576h4.984v1.272h-3.446v1.804h3.19v1.272h-3.19v1.805h3.456V13zm12.377-7.424V13h-1.333l-3.261-4.717h-.062V13h-1.538V5.576h1.354l3.24 4.717h.072V5.576zm.963 1.272V5.576h6.081v1.272H38.49V13h-1.528V6.848z"/></svg>
