<svg width="15" height="15" viewBox="0 0 15 15" fill="none" xmlns="http://www.w3.org/2000/svg">
<rect width="15" height="15" fill="black"/>
<path fill-rule="evenodd" clip-rule="evenodd" d="M5.19874 4.49216C5.00348 4.29689 4.68691 4.29689 4.49166 4.49216C4.2964 4.68742 4.2964 5.00402 4.49166 5.19929L7.04279 7.7506L4.49201 10.3016C4.29676 10.4968 4.29676 10.8134 4.49201 11.0087C4.68727 11.204 5.00384 11.204 5.19909 11.0087L7.74987 8.45774L10.3006 11.0087C10.4959 11.204 10.8125 11.204 11.0077 11.0087C11.203 10.8134 11.203 10.4968 11.0077 10.3016L8.45695 7.7506L11.0081 5.19929C11.2033 5.00402 11.2033 4.68742 11.0081 4.49216C10.8128 4.29689 10.4962 4.29689 10.301 4.49216L7.74987 7.04347L5.19874 4.49216Z" fill="white"/>
</svg>
