<svg width="72" height="24" viewBox="0 0 72 24" fill="none" xmlns="http://www.w3.org/2000/svg">
<rect x="0.5" y="0.5" width="71" height="23" fill="white"/>
<rect x="0.5" y="0.5" width="71" height="23" stroke="#D2D2D2"/>
<path d="M24.9687 8.45313V7.51563H31.3672V8.45313H28.707V16H27.6406V8.45313H24.9687ZM39.5937 11.7578C39.5996 14.4414 38.0176 16.1172 35.8437 16.1172C33.6641 16.1172 32.0879 14.4414 32.0937 11.7578C32.0879 9.07422 33.6641 7.39844 35.8437 7.39844C38.0176 7.39844 39.5996 9.07422 39.5937 11.7578ZM33.1133 11.7578C33.1191 13.9434 34.3086 15.127 35.8437 15.1328C37.3789 15.127 38.5684 13.9434 38.5742 11.7578C38.5684 9.56641 37.3789 8.38281 35.8437 8.38281C34.3086 8.38281 33.1191 9.56641 33.1133 11.7578ZM41.1406 16V7.51563H44.0234C46.0098 7.51563 46.918 8.69922 46.918 10.2109C46.918 11.7168 46.0098 12.918 44.0352 12.918H42.1953V16H41.1406ZM42.1953 11.9805H43.9883C45.3418 11.9805 45.8691 11.2188 45.875 10.2109C45.8691 9.19727 45.3418 8.45313 43.9766 8.45313H42.1953V11.9805Z" fill="black"/>
</svg>
