<svg width="56" height="56" viewBox="0 0 56 56" fill="none" xmlns="http://www.w3.org/2000/svg">
<rect width="56" height="56" fill="#F5F5F5"/>
<path fill-rule="evenodd" clip-rule="evenodd" d="M37.2308 29.0005C37.7831 29.0005 38.2308 28.5527 38.2308 28.0005C38.2308 27.4482 37.7831 27.0005 37.2308 27.0005L28.9999 27.0005L28.9999 18.7708C28.9999 18.2185 28.5522 17.7708 27.9999 17.7708C27.4476 17.7708 26.9999 18.2185 26.9999 18.7708L26.9999 27.0005L18.7692 27.0005C18.2169 27.0005 17.7692 27.4482 17.7692 28.0005C17.7692 28.5527 18.2169 29.0005 18.7692 29.0005L26.9999 29.0005L26.9999 37.2323C26.9999 37.7846 27.4476 38.2323 27.9999 38.2323C28.5522 38.2323 28.9999 37.7846 28.9999 37.2323L28.9999 29.0005L37.2308 29.0005Z" fill="black"/>
</svg>
