<svg width="32" height="18" viewBox="0 0 32 18" fill="none" xmlns="http://www.w3.org/2000/svg">
<rect width="32" height="18" fill="#2D4F06"/>
<path d="M14.7037 5.02003V11.4081H13.4537V5.02003H14.7037ZM7.40055 7.8239C7.3971 6.5221 8.46754 5.58287 9.83149 5.58287C11.1954 5.58287 12.259 6.5221 12.259 7.8239C12.259 9.14641 11.1954 10.0787 9.83149 10.0787C8.46754 10.0787 7.3971 9.14641 7.40055 7.8239ZM8.61948 7.8239C8.61257 8.5663 9.13743 8.99447 9.83149 8.99447C10.5048 8.99447 11.0297 8.5663 11.0297 7.8239C11.0297 7.10221 10.5048 6.66713 9.83149 6.66713C9.13743 6.66713 8.61257 7.10221 8.61948 7.8239ZM8.74724 13.7459V10.7624H10.0076V12.741H14.9385V13.7459H8.74724ZM23.3739 5.00622V13.9012H22.1136V5.00622H23.3739ZM15.9361 11.384C18.2289 10.2963 19.2406 8.89434 19.4409 6.9192H16.4126V5.94199H20.7116C20.7082 8.63536 19.7621 10.8764 16.5853 12.375L15.9361 11.384Z" fill="white"/>
</svg>
