<svg width="49" height="18" viewBox="0 0 49 18" fill="none" xmlns="http://www.w3.org/2000/svg">
<rect width="49" height="18" fill="#C52323"/>
<path d="M15.3736 9.91298V10.9109H11.9102V13.9012H10.6775V10.9109H7.26588V9.91298H15.3736ZM7.66298 8.42127C9.47238 8.20373 10.4599 7.3232 10.5912 6.45304H7.99793V5.47928H14.645V6.45304H12.0552C12.1727 7.3232 13.1568 8.20373 14.9869 8.42127L14.5345 9.39848C12.9738 9.18785 11.8584 8.52141 11.3198 7.60981C10.7811 8.52141 9.6692 9.18785 8.12224 9.39848L7.66298 8.42127ZM24.0266 9.40193V10.3964H20.684V11.9296H19.4513V10.3964H15.8981V9.40193H24.0266ZM16.8511 13.7459V11.1561H18.0942V12.741H23.1322V13.7459H16.8511ZM16.9098 8.6768V5.39641H22.9872V8.6768H16.9098ZM18.1288 7.70649H21.7614V6.36671H18.1288V7.70649ZM31.9302 5.29972V6.29765H30.7734V7.7721H31.8715V8.73895H29.2161V9.52624H32.6588V10.5138H24.551V9.52624H27.9661V8.73895H25.3211V7.7721H26.4157V6.29765H25.2624V5.29972H31.9302ZM25.4488 12.1195V11.125H31.6712V13.9012H30.4247V12.1195H25.4488ZM27.6588 7.7721H29.52V6.29765H27.6588V7.7721ZM41.3014 9.91298V10.9109H37.838V13.9012H36.6052V10.9109H33.1936V9.91298H41.3014ZM33.5907 8.42127C35.4001 8.20373 36.3877 7.3232 36.5189 6.45304H33.9257V5.47928H40.5728V6.45304H37.983C38.1004 7.3232 39.0845 8.20373 40.9146 8.42127L40.4623 9.39848C38.9015 9.18785 37.7862 8.52141 37.2475 7.60981C36.7088 8.52141 35.5969 9.18785 34.05 9.39848L33.5907 8.42127Z" fill="white"/>
</svg>
