<svg width="32" height="18" viewBox="0 0 32 18" fill="none" xmlns="http://www.w3.org/2000/svg">
<rect width="32" height="18" fill="#2D4F06"/>
<path d="M15.3736 10.3308V11.3494H11.924V13.9081H10.6878V11.3494H7.26588V10.3308H15.3736ZM7.67334 8.88398C9.51381 8.66989 10.5186 7.80318 10.6671 7.01588H7.99793V6.03522H10.6878V5.02003H11.924V6.03522H14.6278V7.01588H11.9551C12.1036 7.79282 13.1015 8.66989 14.9385 8.88398L14.4896 9.86119C12.9841 9.68508 11.8964 9.06699 11.3163 8.25898C10.7362 9.07389 9.64157 9.68163 8.12569 9.86119L7.67334 8.88398ZM19.1819 7.10221C19.1819 8.10014 19.8311 9.12569 21.2779 9.56423L20.6806 10.5311C19.6861 10.2445 18.9817 9.63329 18.5777 8.86326C18.184 9.69544 17.4796 10.355 16.4506 10.6727L15.8463 9.70235C17.2897 9.26381 17.9388 8.18646 17.9388 7.10221V7.0366H16.1502V6.05594H17.9388V5.06837H19.1958V6.05594H20.9706V7.0366H19.1819V7.10221ZM17.5003 13.7459V11.0456H18.7434V12.741H23.6087V13.7459H17.5003ZM20.6806 8.61119V7.61326H22.155V5.02003H23.3981V11.6084H22.155V8.61119H20.6806Z" fill="white"/>
</svg>
