<svg width="49" height="18" viewBox="0 0 49 18" fill="none" xmlns="http://www.w3.org/2000/svg">
<rect width="49" height="18" fill="#C52323"/>
<path d="M14.3308 5.00622V7.12293H15.5117V8.13467H14.3308V10.1547H13.067V5.00622H14.3308ZM7.57666 9.67472V5.60704H11.5753V6.60843H8.81285V8.66989C10.4634 8.66298 11.3681 8.60773 12.3591 8.40055L12.4696 9.39848C11.3715 9.63674 10.3253 9.67472 8.31561 9.67472H7.57666ZM8.35704 12.0953C8.35359 10.9765 9.54489 10.3135 11.3992 10.3101C13.2327 10.3135 14.3999 10.9765 14.3999 12.0953C14.3999 13.2348 13.2327 13.9012 11.3992 13.8978C9.54489 13.9012 8.35359 13.2348 8.35704 12.0953ZM9.58633 12.0953C9.58287 12.6305 10.2355 12.9102 11.3992 12.9102C12.5318 12.9102 13.1878 12.6305 13.1913 12.0953C13.1878 11.5704 12.5318 11.2977 11.3992 11.3011C10.2355 11.2977 9.58287 11.5704 9.58633 12.0953ZM18.4326 5.2721C19.7862 5.2721 20.8049 6.11809 20.8118 7.30249C20.8049 8.48343 19.7862 9.32251 18.4326 9.32597C17.0618 9.32251 16.0397 8.48343 16.0431 7.30249C16.0397 6.11809 17.0618 5.2721 18.4326 5.2721ZM17.2517 7.30249C17.2448 7.94475 17.7489 8.32113 18.4326 8.32113C19.106 8.32113 19.6032 7.94475 19.6032 7.30249C19.6032 6.66713 19.106 6.29075 18.4326 6.29075C17.7524 6.29075 17.2448 6.66713 17.2517 7.30249ZM17.3829 10.7935V9.83356H23.3463V12.2472H18.6191V12.8204H23.588V13.8011H17.4036V11.3356H22.1032V10.7935H17.3829ZM22.0963 9.46754V5.00622H23.3463V9.46754H22.0963ZM26.0497 5.41022V6.4634H27.8729V5.41022H29.116V9.28798H24.8135V5.41022H26.0497ZM25.7044 10.828V9.86464H31.6021V12.2818H26.9474V12.8584H31.8577V13.8391H25.7182V11.3874H30.3591V10.828H25.7044ZM26.0497 8.31077H27.8729V7.39917H26.0497V8.31077ZM30.3521 9.5366V5.00622H31.6021V6.73964H32.7969V7.74793H31.6021V9.5366H30.3521ZM37.8518 8.15539V9.25345H41.3014V10.2479H33.1936V9.25345H36.6156V8.15539H37.8518ZM33.608 7.7134C35.5762 7.47168 36.5949 6.45304 36.5983 5.45166V5.15815H37.8656V5.45166C37.8656 6.49102 38.8601 7.47168 40.8628 7.7134L40.3828 8.68715C38.8877 8.46271 37.7827 7.8308 37.2199 6.93992C36.6536 7.82735 35.552 8.46271 34.0534 8.68715L33.608 7.7134ZM34.119 12.3232C34.119 11.3149 35.2862 10.7383 37.2302 10.7383C39.1708 10.7383 40.3207 11.3149 40.3276 12.3232C40.3207 13.3384 39.1708 13.9012 37.2302 13.8978C35.2862 13.9012 34.119 13.3384 34.119 12.3232ZM35.3898 12.3232C35.3828 12.7617 35.9906 12.9689 37.2302 12.9689C38.4491 12.9689 39.0741 12.7617 39.0776 12.3232C39.0741 11.8847 38.4491 11.6844 37.2302 11.6844C35.9906 11.6844 35.3828 11.8847 35.3898 12.3232Z" fill="white"/>
</svg>
