<svg xmlns="http://www.w3.org/2000/svg" width="33" height="18" fill="none"><rect width="33" height="18" fill="#000" rx="9"/><path fill="#fff" d="M15.121 4.612v9.331h-1.323v-9.33zm-7.813 6.686c2.41-1.138 3.47-2.615 3.68-4.686H7.81V5.586h4.512c-.005 2.83-.995 5.184-4.327 6.758zm14.898-5.999v.954H16.67v-.954h2.113v-.748h1.302v.748zm-5.813 4.45c.723 0 1.538 0 2.389-.025v-.497C17.74 9.083 17.095 8.6 17.1 7.883c-.005-.866.923-1.42 2.338-1.415 1.38-.005 2.328.549 2.338 1.415-.01.713-.672 1.2-1.692 1.344v.45a33 33 0 0 0 2.205-.184l.092.872c-1.99.343-4.174.374-5.814.38zm1.312 2.554v-1.005h6.49v2.645h-1.332v-1.64zm.656-4.42c-.005.339.41.518 1.077.513.64.005 1.077-.174 1.077-.513 0-.364-.436-.543-1.077-.543-.666 0-1.082.18-1.077.543m4.502 3.046V4.633h1.333v6.296z"/></svg>
