<svg xmlns="http://www.w3.org/2000/svg" width="33" height="18" fill="none"><rect width="33" height="18" fill="#FF5C00" rx="9"/><path fill="#fff" d="M15.788 10.2v1.067h-3.62v2.687h-1.292v-2.687h-3.6v-1.066zm-8.08-1.527c1.938-.215 2.989-1.128 3.147-1.959h-2.81V5.69h2.831V4.623h1.292v1.066h2.84v1.025H12.21c.143.82 1.195 1.744 3.127 1.959l-.471 1.025c-1.585-.18-2.728-.83-3.333-1.676-.61.856-1.758 1.497-3.353 1.676zm12.079-1.866c.005 1.05.687 2.122 2.204 2.584l-.625 1.015c-1.046-.303-1.785-.944-2.205-1.754-.415.877-1.153 1.57-2.235 1.908l-.636-1.026c1.518-.456 2.194-1.59 2.194-2.727v-.072h-1.876V5.709h1.876V4.674h1.323v1.035h1.866v1.026h-1.886zm-1.764 6.972v-2.83h1.312v1.784h5.107v1.046zm3.343-5.383V7.34h1.548V4.623h1.302v6.92h-1.302V8.397z"/></svg>
