<svg xmlns="http://www.w3.org/2000/svg" width="51" height="18" fill="none"><rect width="51" height="18" fill="#0080FF" rx="9"/><path fill="#fff" d="M14.7 4.612v2.215h1.241v1.067h-1.24v2.122h-1.333V4.612zM7.606 9.514V5.238h4.194v1.046H8.907v2.174c1.733-.01 2.682-.067 3.722-.288l.113 1.046c-1.153.252-2.25.293-4.358.298zm.82 2.532c-.005-1.174 1.246-1.866 3.2-1.866 1.917 0 3.142.692 3.148 1.866-.006 1.2-1.231 1.902-3.149 1.897-1.953.005-3.204-.697-3.199-1.897m1.292 0c-.005.564.682.862 1.907.862 1.185 0 1.872-.298 1.877-.862-.005-.548-.692-.835-1.876-.83-1.226-.005-1.913.282-1.908.83m9.29-7.157c1.42-.005 2.487.887 2.492 2.133-.005 1.236-1.072 2.117-2.492 2.123-1.44-.006-2.512-.887-2.512-2.123 0-1.246 1.072-2.138 2.512-2.133m-1.24 2.133c-.01.666.517 1.061 1.24 1.066.708-.005 1.226-.4 1.23-1.066-.004-.672-.522-1.066-1.23-1.066-.717 0-1.25.394-1.24 1.066m.133 3.66V9.679h6.265v2.532h-4.963v.605h5.22v1.026H17.92v-2.584h4.943v-.574zm4.953-1.394V4.612h1.312v4.676zm4.152-4.255V6.14h1.908V5.033h1.312v4.07h-4.522v-4.07zm-.369 5.69V9.71h6.194v2.532h-4.891v.605h5.157v1.036h-6.44v-2.574h4.871v-.584zm.37-2.645h1.907v-.953h-1.908zm4.511 1.282V4.612h1.313v1.815h1.26v1.056h-1.26V9.36zm7.875-1.446v1.149h3.62v1.045H34.5V9.062h3.6V7.915zm-4.45-.461c2.06-.262 3.133-1.328 3.138-2.38v-.307h1.333v.308c-.005 1.092 1.04 2.117 3.148 2.379l-.503 1.015c-1.579-.236-2.738-.897-3.327-1.83-.595.927-1.754 1.6-3.328 1.83zm.533 4.84c0-1.062 1.225-1.667 3.271-1.672 2.03.005 3.24.61 3.25 1.672-.01 1.06-1.22 1.656-3.25 1.65-2.046.005-3.27-.59-3.27-1.65m1.333 0c-.005.456.63.676 1.938.676 1.277 0 1.933-.22 1.938-.676-.005-.467-.661-.672-1.938-.677-1.307.005-1.943.21-1.938.677"/></svg>
