<svg xmlns="http://www.w3.org/2000/svg" width="41" height="18" fill="none"><rect width="41" height="18" fill="#FF5C00" rx="9"/><path fill="#fff" d="M7.625 13V5.576h2.954c1.635 0 2.466.79 2.46 1.907.006.872-.569 1.42-1.332 1.59v.072c.835.04 1.625.707 1.63 1.804C13.332 12.13 12.45 13 10.773 13zm1.539-1.271h1.302c.892.005 1.276-.364 1.271-.923.005-.626-.471-1.067-1.23-1.067H9.164zm0-3.046h1.189c.646.005 1.133-.359 1.128-.954.005-.538-.395-.902-1.097-.902h-1.22zM14.31 13V5.576h4.983v1.272H15.85v1.804h3.19v1.272h-3.19v1.805h3.456V13zm10.213-5.301c-.062-.59-.528-.933-1.282-.933-.78 0-1.215.359-1.22.85-.005.539.549.78 1.19.924l.666.164c1.271.292 2.22.938 2.225 2.173-.005 1.36-1.061 2.23-2.871 2.225-1.794.006-2.938-.825-2.984-2.42h1.497c.051.75.646 1.128 1.466 1.128.81 0 1.333-.379 1.333-.933 0-.507-.461-.743-1.271-.943l-.81-.195c-1.251-.307-2.02-.933-2.02-2.02-.005-1.348 1.184-2.245 2.81-2.245 1.645 0 2.727.912 2.747 2.225zm2.297-.851V5.576h6.08v1.272h-2.276V13h-1.528V6.848z"/></svg>
