<svg width="24" height="25" viewBox="0 0 24 25" fill="none" xmlns="http://www.w3.org/2000/svg">
<g clip-path="url(#clip0_486_1252)">
<path fill-rule="evenodd" clip-rule="evenodd" d="M0 8.05363C0 5.71456 1.8962 3.81836 4.23527 3.81836H19.7647C22.1038 3.81836 24 5.71456 24 8.05363V16.5241C24 18.8632 22.1038 20.7594 19.7647 20.7594H14.1824L12.4845 24.0282C12.3527 24.2819 11.9898 24.2819 11.8581 24.0282L10.1601 20.7594H4.23528C1.8962 20.7594 0 18.8632 0 16.5241V8.05363ZM19.5419 11.1349C19.2523 10.767 18.831 10.5522 18.2609 10.5522C17.0149 10.5522 16.1023 11.5918 16.1023 12.8286C16.1023 14.0654 17.0149 15.1051 18.2606 15.1051C18.831 15.1051 19.2523 14.8898 19.5419 14.5223V14.9347C19.5419 15.5708 19.1644 15.8938 18.5502 15.8938H18.5065V17.0765C19.6735 17.0765 20.8228 16.4397 20.8228 14.9343V10.6776H19.5419V11.1349ZM4.49164 11.0988V9.18375L3.17578 9.18337V15.1584H4.49164V14.7375C4.78128 15.0782 5.21095 15.2842 5.79867 15.2842C6.94842 15.2842 7.89599 14.2534 7.89599 12.9184C7.89599 11.583 6.94842 10.5522 5.79867 10.5522C5.21095 10.5522 4.78128 10.7585 4.49164 11.0988ZM15.4827 12.9184C15.4827 11.583 14.4476 10.5522 13.1579 10.5522H13.1575C11.8681 10.5522 10.8327 11.583 10.8327 12.9184C10.8327 14.2534 11.8681 15.2842 13.1579 15.2842C14.4476 15.2842 15.4827 14.2534 15.4827 12.9184ZM10.0531 11.1782C10.0531 9.78643 9.08486 9.12659 8.01721 9.02032V10.2314C8.46952 10.3208 8.73729 10.6381 8.73729 11.1782V15.1588H10.0531V11.1782ZM4.40609 12.9184C4.40609 12.191 4.88102 11.7349 5.53588 11.7349C6.19113 11.7349 6.66568 12.191 6.66568 12.9184C6.66568 13.6453 6.19113 14.1015 5.53588 14.1015C4.88102 14.1015 4.40609 13.6453 4.40609 12.9184ZM12.0661 12.9184C12.0661 12.2298 12.5406 11.774 13.1579 11.774C13.7751 11.774 14.2497 12.2298 14.2497 12.9184C14.2497 13.6066 13.7751 14.0627 13.1579 14.0627C12.5406 14.0627 12.0661 13.6066 12.0661 12.9184ZM17.331 12.8286C17.331 12.1596 17.806 11.7038 18.48 11.7038C19.154 11.7038 19.629 12.1596 19.629 12.8286C19.629 13.4976 19.154 13.9534 18.48 13.9534C17.806 13.9534 17.331 13.4976 17.331 12.8286Z" fill="white"/>
</g>
<defs>
<clipPath id="clip0_486_1252">
<rect width="24" height="24" fill="white" transform="translate(0 0.667969)"/>
</clipPath>
</defs>
</svg>
