<svg width="24" height="25" viewBox="0 0 24 25" fill="none" xmlns="http://www.w3.org/2000/svg">
<g clip-path="url(#clip0_486_1249)">
<path d="M24 12.668C24 6.04055 18.6274 0.667969 12 0.667969C5.37258 0.667969 0 6.04055 0 12.668C0 18.6574 4.3882 23.622 10.125 24.5222V16.1367H7.07812V12.668H10.125V10.0242C10.125 7.01672 11.9166 5.35547 14.6576 5.35547C15.9701 5.35547 17.3438 5.58984 17.3438 5.58984V8.54297H15.8306C14.34 8.54297 13.875 9.46805 13.875 10.418V12.668H17.2031L16.6711 16.1367H13.875V24.5222C19.6118 23.622 24 18.6574 24 12.668Z" fill="white"/>
</g>
<defs>
<clipPath id="clip0_486_1249">
<rect width="24" height="24" fill="white" transform="translate(0 0.667969)"/>
</clipPath>
</defs>
</svg>
