<svg width="24" height="25" viewBox="0 0 24 25" fill="none" xmlns="http://www.w3.org/2000/svg">
<g clip-path="url(#clip0_486_1250)">
<path d="M12 2.82891C15.2063 2.82891 15.5859 2.84297 16.8469 2.89922C18.0188 2.95078 18.6516 3.14766 19.0734 3.31172C19.6313 3.52734 20.0344 3.78984 20.4516 4.20703C20.8734 4.62891 21.1313 5.02734 21.3469 5.58516C21.5109 6.00703 21.7078 6.64453 21.7594 7.81172C21.8156 9.07734 21.8297 9.45703 21.8297 12.6586C21.8297 15.8648 21.8156 16.2445 21.7594 17.5055C21.7078 18.6773 21.5109 19.3102 21.3469 19.732C21.1313 20.2898 20.8687 20.693 20.4516 21.1102C20.0297 21.532 19.6313 21.7898 19.0734 22.0055C18.6516 22.1695 18.0141 22.3664 16.8469 22.418C15.5813 22.4742 15.2016 22.4883 12 22.4883C8.79375 22.4883 8.41406 22.4742 7.15313 22.418C5.98125 22.3664 5.34844 22.1695 4.92656 22.0055C4.36875 21.7898 3.96563 21.5273 3.54844 21.1102C3.12656 20.6883 2.86875 20.2898 2.65313 19.732C2.48906 19.3102 2.29219 18.6727 2.24063 17.5055C2.18438 16.2398 2.17031 15.8602 2.17031 12.6586C2.17031 9.45234 2.18438 9.07266 2.24063 7.81172C2.29219 6.63984 2.48906 6.00703 2.65313 5.58516C2.86875 5.02734 3.13125 4.62422 3.54844 4.20703C3.97031 3.78516 4.36875 3.52734 4.92656 3.31172C5.34844 3.14766 5.98594 2.95078 7.15313 2.89922C8.41406 2.84297 8.79375 2.82891 12 2.82891ZM12 0.667969C8.74219 0.667969 8.33438 0.682031 7.05469 0.738281C5.77969 0.794531 4.90313 1.00078 4.14375 1.29609C3.35156 1.60547 2.68125 2.01328 2.01563 2.68359C1.34531 3.34922 0.9375 4.01953 0.628125 4.80703C0.332812 5.57109 0.126563 6.44297 0.0703125 7.71797C0.0140625 9.00234 0 9.41016 0 12.668C0 15.9258 0.0140625 16.3336 0.0703125 17.6133C0.126563 18.8883 0.332812 19.7648 0.628125 20.5242C0.9375 21.3164 1.34531 21.9867 2.01563 22.6523C2.68125 23.318 3.35156 23.7305 4.13906 24.0352C4.90313 24.3305 5.775 24.5367 7.05 24.593C8.32969 24.6492 8.7375 24.6633 11.9953 24.6633C15.2531 24.6633 15.6609 24.6492 16.9406 24.593C18.2156 24.5367 19.0922 24.3305 19.8516 24.0352C20.6391 23.7305 21.3094 23.318 21.975 22.6523C22.6406 21.9867 23.0531 21.3164 23.3578 20.5289C23.6531 19.7648 23.8594 18.893 23.9156 17.618C23.9719 16.3383 23.9859 15.9305 23.9859 12.6727C23.9859 9.41484 23.9719 9.00703 23.9156 7.72734C23.8594 6.45234 23.6531 5.57578 23.3578 4.81641C23.0625 4.01953 22.6547 3.34922 21.9844 2.68359C21.3188 2.01797 20.6484 1.60547 19.8609 1.30078C19.0969 1.00547 18.225 0.799219 16.95 0.742969C15.6656 0.682031 15.2578 0.667969 12 0.667969Z" fill="white"/>
<path d="M12 6.50391C8.59688 6.50391 5.83594 9.26484 5.83594 12.668C5.83594 16.0711 8.59688 18.832 12 18.832C15.4031 18.832 18.1641 16.0711 18.1641 12.668C18.1641 9.26484 15.4031 6.50391 12 6.50391ZM12 16.6664C9.79219 16.6664 8.00156 14.8758 8.00156 12.668C8.00156 10.4602 9.79219 8.66953 12 8.66953C14.2078 8.66953 15.9984 10.4602 15.9984 12.668C15.9984 14.8758 14.2078 16.6664 12 16.6664Z" fill="white"/>
<path d="M19.8469 6.26035C19.8469 7.05723 19.2 7.69942 18.4078 7.69942C17.6109 7.69942 16.9688 7.05254 16.9688 6.26035C16.9688 5.46348 17.6156 4.82129 18.4078 4.82129C19.2 4.82129 19.8469 5.46817 19.8469 6.26035Z" fill="white"/>
</g>
<defs>
<clipPath id="clip0_486_1250">
<rect width="24" height="24" fill="white" transform="translate(0 0.667969)"/>
</clipPath>
</defs>
</svg>
