<svg width="32" height="18" viewBox="0 0 32 18" fill="none" xmlns="http://www.w3.org/2000/svg">
<rect width="32" height="18" fill="black"/>
<path d="M14.9662 5.00622V13.9012H13.7749V5.00622H14.9662ZM7.34185 8.85635C7.3384 6.87086 8.10152 5.64503 9.2721 5.64503C10.018 5.64503 10.6015 6.12845 10.933 6.98135H11.9758V5.14434H13.1499V13.4903H11.9758V10.7383H10.9365C10.605 11.6015 10.0214 12.0919 9.2721 12.0884C8.10152 12.0919 7.3384 10.8591 7.34185 8.85635ZM8.47099 8.85635C8.46754 10.2272 8.75414 10.8971 9.2721 10.8936C9.79006 10.8971 10.1008 10.2272 10.1043 8.85635C10.1008 7.49931 9.7866 6.81906 9.2721 6.82251C8.75414 6.81906 8.46754 7.49931 8.47099 8.85635ZM11.1782 7.97928C11.2162 8.25207 11.2369 8.54558 11.2369 8.85635C11.2369 9.16367 11.2162 9.45718 11.1816 9.72652H11.9758V7.97928H11.1782ZM24.1094 6.1837V7.19199H22.9596V8.10014H24.1094V9.1326H22.9596V10.2514H21.7096V5.00622H22.9596V6.1837H24.1094ZM15.9706 7.6616C15.9637 6.4047 17.0169 5.49309 18.405 5.49655C19.7828 5.49309 20.8256 6.4047 20.8325 7.6616C20.8256 8.93923 19.7828 9.84047 18.405 9.84047C17.0169 9.84047 15.9637 8.93923 15.9706 7.6616ZM16.9755 11.6153V10.6105H22.9596V13.9012H21.7096V11.6153H16.9755ZM17.1895 7.6616C17.1826 8.37293 17.7075 8.78384 18.405 8.78039C19.0887 8.78384 19.6136 8.37293 19.617 7.6616C19.6136 6.96754 19.0922 6.56354 18.405 6.56008C17.7075 6.56354 17.1826 6.96754 17.1895 7.6616Z" fill="white"/>
</svg>
