<svg width="47" height="18" viewBox="0 0 47 18" fill="none" xmlns="http://www.w3.org/2000/svg">
<rect width="47" height="18" fill="#C52323"/>
<path d="M7.59738 13V5.92818H12.3419V7.14365H9.06492V8.85635H12.0967V10.0684H9.06492V11.7845H12.3557V13H7.59738ZM14.7222 5.92818L16.4453 11.3253H16.5109L18.2374 5.92818H19.8673L17.4225 13H15.5337L13.0889 5.92818H14.7222ZM20.6638 13V5.92818H25.4083V7.14365H22.1313V8.85635H25.1631V10.0684H22.1313V11.7845H25.4221V13H20.6638ZM32.4502 5.92818V13H31.1795L28.0718 8.5076H28.02V13H26.5525V5.92818H27.8439L30.9275 10.4171H30.9896V5.92818H32.4502ZM33.3626 7.14365V5.92818H39.1533V7.14365H36.9883V13H35.5346V7.14365H33.3626Z" fill="white"/>
</svg>
