<svg width="49" height="18" viewBox="0 0 49 18" fill="none" xmlns="http://www.w3.org/2000/svg">
<rect width="49" height="18" fill="#2D4F06"/>
<path d="M10.8294 9.81285V11.1526C11.558 11.1077 12.2935 11.0387 12.9876 10.9351L13.0808 11.8536C11.1126 12.2265 9.00276 12.2438 7.44544 12.2438L7.30387 11.239C7.9703 11.239 8.7576 11.2355 9.58633 11.2079V9.81285H10.8294ZM7.47997 9.14986C8.81975 8.79765 9.47583 7.96547 9.55525 7.06077H7.76312V6.06284H9.58633V5.08909H10.8294V6.06284H12.6664V7.06077H10.8501C10.9296 7.92058 11.596 8.72859 12.9392 9.05663L12.3729 10.02C11.3336 9.7576 10.6119 9.17749 10.2113 8.43854C9.82459 9.21547 9.11326 9.81975 8.06354 10.0925L7.47997 9.14986ZM13.4917 13.922V5.00622H14.7314V13.922H13.4917ZM22.9181 5.00622V8.31077H24.2303V9.32942H22.9181V13.922H21.6716V5.00622H22.9181ZM16.2607 11.7604V5.83494H20.4285V6.83978H17.5003V10.7348C18.7883 10.7244 19.8553 10.6554 21.0293 10.4517L21.1674 11.4945C19.7897 11.7293 18.5777 11.7638 17.0065 11.7604H16.2607ZM29.5303 5.75552V6.74655H28.8052V9.21547C29.1608 9.18785 29.5062 9.15331 29.8411 9.11188L29.9343 10.0269C28.1491 10.3343 26.1222 10.3653 24.6339 10.3619L24.4992 9.36395C24.8031 9.36395 25.1277 9.3605 25.4661 9.35704V6.74655H24.7375V5.75552H29.5303ZM25.8356 13.7459V10.942H27.0787V12.741H31.9198V13.7459H25.8356ZM26.6643 9.32942C26.9751 9.32251 27.2893 9.3087 27.607 9.29489V6.74655H26.6643V9.32942ZM30.3521 11.5635V5.02003H31.6021V7.52003H32.7969V8.55249H31.6021V11.5635H30.3521ZM40.8939 5.00622V13.9012H39.7026V9.4192H38.9015V13.4903H37.724V5.14434H38.9015V8.40401H39.7026V5.00622H40.8939ZM33.4422 11.6637V5.93163H36.9781V11.6637H33.4422ZM34.6094 10.6865H35.8145V6.91229H34.6094V10.6865Z" fill="white"/>
</svg>
