<svg width="49" height="18" viewBox="0 0 49 18" fill="none" xmlns="http://www.w3.org/2000/svg">
<rect width="49" height="18" fill="black"/>
<path d="M10.5463 7.43025C10.5394 8.78729 11.261 10.3515 12.7217 11.0249L12.0276 12.0021C11.0366 11.5463 10.3322 10.6416 9.93854 9.57459C9.53798 10.7521 8.80594 11.7465 7.78384 12.23L7.0587 11.2459C8.54006 10.5552 9.28591 8.90124 9.29282 7.43025V6.88467H7.41091V5.86602H12.3349V6.88467H10.5463V7.43025ZM13.029 13.9012V5.00622H14.2756V8.40401H15.5877V9.44337H14.2756V13.9012H13.029ZM18.6813 7.71685C18.6778 9.06699 19.1647 10.4137 20.4285 11.0939L19.7448 12.0055C18.9402 11.5946 18.4119 10.8764 18.1011 10.0097C17.7904 10.9489 17.2621 11.75 16.454 12.2196L15.7393 11.2838C17.0238 10.538 17.5003 9.09116 17.5072 7.71685V7.51312H16.0742V6.51519H17.5072V5.31699H18.6709V6.51519H20.0797V7.51312H18.6813V7.71685ZM19.5583 9.39848V8.38329H20.6046V5.1547H21.7717V13.4869H20.6046V9.39848H19.5583ZM22.4105 13.9012V5.00622H23.588V13.9012H22.4105ZM32.2306 5.00622V13.9012H31.0531V5.00622H32.2306ZM24.3646 11.3046C25.6733 10.4965 26.1602 8.90124 26.1602 7.38881V6.91575H24.703V5.91782H28.7085V6.91575H27.3618V7.38881C27.3584 8.87017 27.8211 10.3619 29.1194 11.1043L28.3908 12.0193C27.5932 11.5532 27.0752 10.759 26.7748 9.80249C26.464 10.8419 25.9288 11.7189 25.1173 12.2231L24.3646 11.3046ZM28.0766 9.06008V8.0587H29.2472V5.1547H30.4143V13.4869H29.2472V9.06008H28.0766ZM38.2454 5.53108V6.52555H36.4706C36.474 7.56837 37.1025 8.63191 38.5389 9.09807L37.907 10.058C36.9229 9.74033 36.2461 9.10497 35.8559 8.31423C35.4588 9.18094 34.7509 9.87155 33.7185 10.2099L33.0589 9.25C34.5265 8.77348 35.1929 7.63743 35.2136 6.52555H33.3973V5.53108H38.2454ZM34.2606 11.7465V10.7521H40.2447V13.9012H38.9947V11.7465H34.2606ZM38.9947 10.3722V5.00622H40.2447V7.16782H41.4395V8.20373H40.2447V10.3722H38.9947Z" fill="white"/>
</svg>
