<svg width="39" height="18" viewBox="0 0 39 18" fill="none" xmlns="http://www.w3.org/2000/svg">
<rect width="39" height="18" fill="#C52323"/>
<path d="M11.4302 7.95166C11.375 7.38881 10.9296 7.06077 10.2113 7.06077C9.46892 7.06077 9.05456 7.40262 9.05456 7.86878C9.0442 8.38674 9.57251 8.61464 10.1837 8.75622L10.8225 8.9116C12.0311 9.18439 12.9323 9.80249 12.9392 10.9834C12.9323 12.2749 11.924 13.1001 10.201 13.1001C8.49517 13.1001 7.40401 12.3094 7.36257 10.797H8.78867C8.83702 11.5083 9.40332 11.864 10.1837 11.864C10.9537 11.864 11.451 11.5083 11.4544 10.9765C11.451 10.4965 11.0159 10.2721 10.2459 10.0822L9.47238 9.89227C8.28108 9.60221 7.54558 9.00829 7.54903 7.96547C7.54213 6.68439 8.67818 5.83149 10.2217 5.83149C11.7894 5.83149 12.8218 6.6982 12.8425 7.95166H11.4302ZM14.9174 13H13.3429L15.7876 5.92818H17.6764L20.1212 13H18.5466L18.0148 11.3702H15.4492L14.9174 13ZM15.8221 10.2203H17.6384L16.7579 7.52348H16.7027L15.8221 10.2203ZM20.9177 13V5.92818H22.3852V11.7845H25.4274V13H20.9177ZM26.3767 13V5.92818H31.1211V7.14365H27.8442V8.85635H30.876V10.0684H27.8442V11.7845H31.135V13H26.3767Z" fill="white"/>
</svg>
