<svg width="72" height="18" viewBox="0 0 72 18" fill="none" xmlns="http://www.w3.org/2000/svg">
<rect x="0.46875" y="0.46875" width="71.0625" height="17.0625" rx="3.53125" fill="white"/>
<rect x="0.46875" y="0.46875" width="71.0625" height="17.0625" rx="3.53125" stroke="#D2D2D2" stroke-width="0.9375"/>
<path d="M10.022 4.76611C12.0881 4.77124 13.3596 5.3916 13.3647 6.49902C13.3596 7.48853 12.3137 8.10889 10.5757 8.2063V8.89844H14.2568V9.82129H5.80762V8.89844H9.45801V8.2063C7.74048 8.10376 6.6792 7.48853 6.6792 6.49902C6.6792 5.3916 7.97632 4.77124 10.022 4.76611ZM6.82275 13.7998V10.2725H7.95068V11.1133H12.0625V10.2725H13.2109V13.7998H6.82275ZM7.86865 6.49902C7.8584 7.04248 8.65308 7.35522 10.022 7.36035C11.3857 7.35522 12.1855 7.04248 12.1855 6.49902C12.1855 5.92993 11.3857 5.61719 10.022 5.62744C8.65308 5.61719 7.8584 5.92993 7.86865 6.49902ZM7.95068 12.877H12.0625V11.9849H7.95068V12.877ZM18.2559 6.28369C18.2507 7.59106 18.9839 8.86255 20.4092 9.40088L19.7734 10.2827C18.7839 9.89307 18.0764 9.1189 17.6919 8.16016C17.292 9.19067 16.5435 10.0059 15.4771 10.416L14.8618 9.51367C16.3384 8.98047 17.1023 7.6731 17.1074 6.28369V5.17627H18.2559V6.28369ZM16.5332 13.728V10.8569H17.6919V12.8052H22.8496V13.728H16.5332ZM19.8145 8.6626V7.75H21.5063V6.8374H19.8145V5.91455H21.5063V4.65332H22.6445V11.5337H21.5063V8.6626H19.8145ZM27.2998 5.22754L24.9106 14.1177H23.7622L26.1616 5.22754H27.2998ZM32.5498 5.41211C32.5447 6.57593 33.8521 7.76025 35.8311 8.0166L35.3799 8.93945C33.8059 8.70361 32.5549 7.92944 31.95 6.88354C31.345 7.92944 30.0991 8.70361 28.5405 8.93945L28.0894 8.0166C30.0479 7.76025 31.3501 6.58618 31.3501 5.41211V4.94043H32.5498V5.41211ZM27.7202 10.6826V9.73926H36.1694V10.6826H32.4883V13.9126H31.3604V10.6826H27.7202ZM45.4082 5.96582V6.90918H44.106V7.91406H45.4082V8.86768H44.106V10.252H42.9678V4.65332H44.106V5.96582H45.4082ZM37.1436 6.11963V5.21729H41.3784V7.8833H38.292V8.85742C39.8608 8.84717 40.9478 8.79077 42.209 8.58057L42.332 9.49316C40.9529 9.74438 39.7429 9.79565 37.9126 9.79053H37.1538V7.02197H40.2607V6.11963H37.1436ZM37.9434 12.1797C37.9382 11.0876 39.1379 10.4314 41.0811 10.4263C42.9934 10.4314 44.1931 11.0876 44.1982 12.1797C44.1931 13.2666 42.9934 13.8921 41.0811 13.8921C39.1379 13.8921 37.9382 13.2666 37.9434 12.1797ZM39.061 12.1797C39.0559 12.7334 39.7839 13.0359 41.0811 13.0308C42.3577 13.0359 43.0703 12.7334 43.0703 12.1797C43.0703 11.6208 42.3577 11.3184 41.0811 11.3184C39.7839 11.3184 39.0559 11.6208 39.061 12.1797ZM56.1235 4.65332V11.4927H54.9854V9.16504H53.1191V9.98535H48.7817V5.2583H49.9199V6.75537H51.9912V5.2583H53.1191V6.25293H54.9854V4.65332H56.1235ZM49.9199 9.08301H51.9912V7.63721H49.9199V9.08301ZM50.0122 13.728V10.8159H51.1709V12.8052H56.3286V13.728H50.0122ZM53.1191 8.24219H54.9854V7.17578H53.1191V8.24219ZM65.1982 4.65332V10.0674H64.0601V9.04199H61.8555V8.11914H64.0601V7.12451H61.9426C61.3582 8.59595 60.0046 9.62646 57.9897 10.1904L57.5283 9.28809C59.697 8.70361 60.8557 7.60132 61.03 6.22217H58.0205V5.29932H62.2759C62.2759 5.62231 62.2502 5.92993 62.199 6.22217H64.0601V4.65332H65.1982ZM58.9844 12.0156C58.9844 10.8774 60.2302 10.175 62.1323 10.1699C64.0088 10.175 65.2598 10.8774 65.2598 12.0156C65.2598 13.1538 64.0088 13.8665 62.1323 13.8613C60.2302 13.8665 58.9844 13.1538 58.9844 12.0156ZM60.1226 12.0156C60.1226 12.6257 60.8865 12.959 62.1323 12.959C63.3577 12.959 64.1165 12.6257 64.1216 12.0156C64.1165 11.3953 63.3577 11.062 62.1323 11.062C60.8865 11.062 60.1226 11.3953 60.1226 12.0156Z" fill="black"/>
</svg>
