<svg xmlns="http://www.w3.org/2000/svg" width="51" height="18" fill="none"><rect width="51" height="18" fill="#000" rx="9"/><path fill="#fff" d="M15.09 4.623v6.808h-1.312V4.623zM7.246 9.124c1.564-.523 2.246-1.82 2.246-3.086v-.903h1.363v.903c-.01 1.235.652 2.44 2.185 2.932l-.667 1.026c-1.056-.349-1.779-1.046-2.194-1.933-.42.953-1.164 1.722-2.256 2.097zm1.59 4.655v-3.004h1.322v1.958h5.178v1.046zm10.92-7.7c-.005 1.133.656 2.22 2.133 2.676L21.19 9.77c-.99-.328-1.681-.964-2.081-1.779-.405.938-1.128 1.676-2.194 2.035l-.708-1.025c1.559-.518 2.225-1.759 2.235-3.045v-.852h1.313zm-2.256 6.06c-.005-1.133 1.23-1.805 3.2-1.805 1.932 0 3.142.672 3.147 1.805-.005 1.143-1.215 1.81-3.148 1.804-1.969.005-3.204-.661-3.199-1.804m1.313 0c-.01.528.66.779 1.886.779 1.21 0 1.856-.251 1.856-.78 0-.507-.646-.779-1.856-.779-1.225 0-1.897.272-1.887.78m3.63-1.99V4.612h1.312v2.184h1.261v1.087h-1.261v2.266zM33.24 4.612v5.014h-1.313V4.612zm-7.67 2.605c0-1.313 1.097-2.225 2.553-2.215 1.451-.01 2.548.902 2.553 2.215-.005 1.271-1.102 2.184-2.553 2.184-1.456 0-2.553-.913-2.553-2.184m1.282 0c-.01.692.523 1.107 1.271 1.107.728 0 1.256-.415 1.261-1.107-.005-.703-.533-1.133-1.261-1.128-.748-.005-1.282.425-1.271 1.128m.143 6.624v-3.804h1.292v.871h3.65v-.871h1.303v3.804zm1.292-1.056h3.65v-.862h-3.65zm13.904-7.363v.882c-.005 1.17-.005 2.482-.379 4.46l-1.312-.133c.358-1.763.374-3.076.379-4.173h-5.496V5.422zm-7.69 7.383V11.74h3.045v-3.21h1.303v3.21h4.163v1.066z"/></svg>
