<svg xmlns="http://www.w3.org/2000/svg" width="51" height="18" fill="none"><rect width="51" height="18" fill="#000" rx="9"/><path fill="#fff" d="M10.722 7.155c-.005 1.42.754 3.061 2.287 3.774l-.728 1.025c-1.041-.477-1.78-1.43-2.2-2.548-.415 1.23-1.184 2.276-2.26 2.784l-.76-1.036C8.616 10.431 9.4 8.698 9.41 7.155v-.574H7.43V5.515H12.6V6.58h-1.877zm2.605 6.788v-9.33h1.312V8.17h1.374v1.098H14.64v4.675zm5.937-6.49c0 1.415.507 2.835 1.835 3.548l-.718.953c-.84-.43-1.4-1.184-1.727-2.092-.323.99-.882 1.826-1.728 2.318l-.749-.985c1.349-.779 1.846-2.302 1.856-3.742v-.216h-1.507V6.191h1.507v-1.26h1.22v1.26h1.477v1.046h-1.466zm.922 1.763V8.15h1.098V4.766h1.23v8.747h-1.23V9.216zm2.995 4.727v-9.33h1.24v9.33zm10.315-9.33v9.33h-1.24v-9.33zm-8.265 6.603c1.374-.846 1.887-2.518 1.887-4.102v-.502H25.59V5.566h4.204v1.046H28.38v.502c-.005 1.549.482 3.117 1.846 3.897l-.769.964c-.836-.493-1.38-1.323-1.697-2.328-.318 1.087-.882 2.01-1.738 2.533zm3.897-2.348V7.812h1.23V4.766h1.23v8.747h-1.23V8.868zm10.674-3.712v1.046h-1.856c.005 1.092.662 2.214 2.174 2.696l-.666 1.016c-1.036-.339-1.749-1.005-2.154-1.836a3.66 3.66 0 0 1-2.245 1.99l-.698-1.005c1.544-.498 2.251-1.698 2.267-2.861h-1.908V5.156zm-4.183 6.521v-1.035h6.285v3.301h-1.312v-2.266zm4.973-1.435v-5.63h1.312v2.266h1.261v1.087h-1.26v2.277z"/></svg>
