<svg xmlns="http://www.w3.org/2000/svg" width="51" height="18" fill="none"><rect width="51" height="18" fill="#0080FF" rx="9"/><path fill="#fff" d="M15.788 9.76v1.046h-3.63v3.137h-1.292v-3.137h-3.59V9.76zm-8.09-1.57c1.886-.23 2.932-1.142 3.07-2.06H8.046V5.104h6.983V6.13h-2.723c.134.918 1.164 1.83 3.082 2.06l-.472 1.026c-1.64-.22-2.815-.917-3.379-1.876-.569.959-1.733 1.656-3.358 1.876zm17.185 1.037v1.035h-3.517v1.61h-1.292v-1.61H16.34V9.227zm-7.537 4.552v-2.717h1.302v1.671h5.291v1.046zm.062-5.321V5.022h6.378v3.436zm1.281-1.016h3.815V6.038h-3.815zM33.18 4.91v1.056h-1.221v1.548h1.159V8.53h-2.79v.82h3.61v1.036h-8.51V9.35h3.588v-.82h-2.779V7.513h1.149V5.966h-1.21V4.91zm-6.81 7.167v-1.046h6.532v2.912H31.6v-1.866zm2.328-4.563h1.948V5.966h-1.948zM43.012 9.76v1.046h-3.63v3.137H38.09v-3.137H34.5V9.76zm-8.09-1.57c1.886-.23 2.932-1.142 3.07-2.06H35.27V5.104h6.983V6.13H39.53c.133.918 1.163 1.83 3.08 2.06l-.47 1.026c-1.642-.22-2.816-.917-3.38-1.876-.569.959-1.732 1.656-3.358 1.876z"/></svg>
