<svg xmlns="http://www.w3.org/2000/svg" width="33" height="18" fill="none"><rect width="33" height="18" fill="#000" rx="9"/><path fill="#fff" d="M15.367 4.612v9.331h-1.25v-9.33zM7.36 8.652c0-2.086.795-3.378 2.03-3.373.78-.005 1.395.507 1.738 1.405h1.102V4.746h1.231v8.767h-1.23V10.62h-1.098c-.348.908-.958 1.425-1.743 1.425-1.235 0-2.03-1.297-2.03-3.394m1.19 0c-.01 1.436.292 2.143.84 2.133.538.01.867-.697.872-2.133-.005-1.43-.334-2.143-.872-2.143-.548 0-.85.713-.84 2.143m2.84-.923q.06.432.061.923c0 .323-.02.631-.056.913h.835V7.729zm13.576-1.886v1.056h-1.21v.954h1.21v1.086h-1.21v1.18h-1.313V4.612h1.313v1.23zM16.413 7.39c-.005-1.318 1.102-2.271 2.564-2.266 1.445-.005 2.543.948 2.543 2.266 0 1.348-1.098 2.292-2.543 2.287-1.462.005-2.569-.939-2.564-2.287m1.056 4.153v-1.056h6.286v3.455h-1.313v-2.4zm.236-4.153c-.01.754.538 1.184 1.272 1.18.717.004 1.266-.426 1.271-1.18-.005-.728-.554-1.153-1.271-1.148-.734-.005-1.282.42-1.272 1.148"/></svg>
