<svg width="48" height="18" viewBox="0 0 48 18" fill="none" xmlns="http://www.w3.org/2000/svg">
<rect width="48" height="18" rx="4" fill="black"/>
<path d="M13.2622 5.18652V6.02734C13.2622 6.98608 13.2622 8.05762 12.9495 9.56494H14.2568V10.4878H10.6064V13.8921H9.45801V10.4878H5.80762V9.56494H11.8267C11.9548 9.01636 12.0317 8.51904 12.083 8.06274L6.6792 8.33447L6.53564 7.36035L12.1548 7.19629C12.1702 6.80664 12.1753 6.44263 12.1753 6.09912H6.82275V5.18652H13.2622ZM22.5522 5.01221V5.93506H21.2808V7.70898H22.501V8.60107H19.6709V9.55469H23.3315V10.457H14.8823V9.55469H18.5225V8.60107H15.6924V7.70898H16.9126V5.93506H15.6411V5.01221H22.5522ZM15.9282 13.728V11.1235H17.0664V12.8052H22.3779V13.728H15.9282ZM18.0508 7.70898H20.1323V5.93506H18.0508V7.70898ZM31.7192 4.65332V11.4927H30.5811V9.16504H28.7148V9.98535H24.3774V5.2583H25.5156V6.75537H27.5869V5.2583H28.7148V6.25293H30.5811V4.65332H31.7192ZM25.5156 9.08301H27.5869V7.63721H25.5156V9.08301ZM25.6079 13.728V10.8159H26.7666V12.8052H31.9243V13.728H25.6079ZM28.7148 8.24219H30.5811V7.17578H28.7148V8.24219ZM40.7939 4.65332V10.0674H39.6558V9.04199H37.4512V8.11914H39.6558V7.12451H37.5383C36.9539 8.59595 35.6003 9.62646 33.5854 10.1904L33.124 9.28809C35.2927 8.70361 36.4514 7.60132 36.6257 6.22217H33.6162V5.29932H37.8716C37.8716 5.62231 37.8459 5.92993 37.7947 6.22217H39.6558V4.65332H40.7939ZM34.5801 12.0156C34.5801 10.8774 35.8259 10.175 37.728 10.1699C39.6045 10.175 40.8555 10.8774 40.8555 12.0156C40.8555 13.1538 39.6045 13.8665 37.728 13.8613C35.8259 13.8665 34.5801 13.1538 34.5801 12.0156ZM35.7183 12.0156C35.7183 12.6257 36.4822 12.959 37.728 12.959C38.9534 12.959 39.7122 12.6257 39.7173 12.0156C39.7122 11.3953 38.9534 11.062 37.728 11.062C36.4822 11.062 35.7183 11.3953 35.7183 12.0156Z" fill="white"/>
</svg>
